<svg width="88" height="90" viewBox="0 0 88 90" fill="none" xmlns="http://www.w3.org/2000/svg">
<g clip-path="url(#clip0_100_888)">
<g filter="url(#filter0_d_100_888)">
<path d="M34.9708 5.71566C40.8848 8.43516 47.6928 8.43516 53.6068 5.71566C71.5748 -2.54634 90.1248 16.0034 81.8628 33.9712C79.1428 39.8862 79.1428 46.6932 81.8628 52.6072C90.1248 70.5752 71.5748 89.1252 53.6068 80.8632C47.6928 78.1432 40.8848 78.1432 34.9708 80.8632C17.0029 89.1252 -1.5469 70.5752 6.7152 52.6072C9.4347 46.6932 9.4347 39.8862 6.7152 33.9712C-1.5469 16.0034 17.0029 -2.54634 34.9708 5.71566Z" fill="white" stroke="#E7E7E7"/>
<path d="M78.0128 32.7764L76.7318 35.5604C74.4768 40.4664 74.4768 46.1124 76.7318 51.0184L78.0128 53.8024C84.7988 68.5624 69.5618 83.7994 54.8018 77.0134L52.0178 75.7324C47.1118 73.4774 41.4658 73.4774 36.5598 75.7324L33.7758 77.0134C19.0158 83.7994 3.7784 68.5624 10.5653 53.8024L11.8455 51.0184C14.1012 46.1124 14.1012 40.4664 11.8455 35.5604L10.5653 32.7764C3.7784 18.0164 19.0158 2.77888 33.7758 9.56578L36.5598 10.846C41.4658 13.1017 47.1118 13.1017 52.0178 10.846L54.8018 9.56578C69.5618 2.77888 84.7988 18.0164 78.0128 32.7764Z" fill="#FEEBE2" stroke="#E7E7E7"/>
</g>
<path d="M55.7381 39.4771H33.1291C32.6801 39.4771 32.2481 39.6561 31.9301 39.9741C31.6121 40.2921 31.4341 40.7231 31.4341 41.1731V54.7381C31.4341 55.1881 31.6121 55.6191 31.9301 55.9371C32.2481 56.2551 32.6801 56.4341 33.1291 56.4341H55.7381C56.1881 56.4341 56.6191 56.2551 56.9371 55.9371C57.2551 55.6191 57.4341 55.1881 57.4341 54.7381V41.1731C57.4341 40.7231 57.2551 40.2921 56.9371 39.9741C56.6191 39.6561 56.1881 39.4771 55.7381 39.4771ZM56.3031 54.7381C56.3031 54.8881 56.2441 55.0321 56.1381 55.1381C56.0321 55.2441 55.8881 55.3031 55.7381 55.3031H33.1291C32.9791 55.3031 32.8361 55.2441 32.7301 55.1381C32.6241 55.0321 32.5641 54.8881 32.5641 54.7381V41.1731C32.5641 41.0231 32.6241 40.8791 32.7301 40.7731C32.8361 40.6671 32.9791 40.6081 33.1291 40.6081H55.7381C55.8881 40.6081 56.0321 40.6671 56.1381 40.7731C56.2441 40.8791 56.3031 41.0231 56.3031 41.1731V54.7381ZM33.6941 35.5211C33.6941 35.3711 33.7541 35.2271 33.8601 35.1211C33.9661 35.0151 34.1101 34.9551 34.2601 34.9551H54.6081C54.7571 34.9551 54.9011 35.0151 55.0071 35.1211C55.1131 35.2271 55.1731 35.3711 55.1731 35.5211C55.1731 35.6701 55.1131 35.8141 55.0071 35.9201C54.9011 36.0261 54.7571 36.0861 54.6081 36.0861H34.2601C34.1101 36.0861 33.9661 36.0261 33.8601 35.9201C33.7541 35.8141 33.6941 35.6701 33.6941 35.5211ZM35.9551 30.9991C35.9551 30.8491 36.0151 30.7051 36.1211 30.5991C36.2271 30.4931 36.3711 30.4341 36.5211 30.4341H52.3471C52.4971 30.4341 52.6401 30.4931 52.7461 30.5991C52.8521 30.7051 52.9121 30.8491 52.9121 30.9991C52.9121 31.1491 52.8521 31.2921 52.7461 31.3981C52.6401 31.5041 52.4971 31.5641 52.3471 31.5641H36.5211C36.3711 31.5641 36.2271 31.5041 36.1211 31.3981C36.0151 31.2921 35.9551 31.1491 35.9551 30.9991Z" fill="#FF8C51"/>
</g>
<defs>
<filter id="filter0_d_100_888" x="0.189453" y="3.18994" width="88.1987" height="88.1987" filterUnits="userSpaceOnUse" color-interpolation-filters="sRGB">
<feFlood flood-opacity="0" result="BackgroundImageFix"/>
<feColorMatrix in="SourceAlpha" type="matrix" values="0 0 0 0 0 0 0 0 0 0 0 0 0 0 0 0 0 0 127 0" result="hardAlpha"/>
<feOffset dy="4"/>
<feGaussianBlur stdDeviation="2"/>
<feComposite in2="hardAlpha" operator="out"/>
<feColorMatrix type="matrix" values="0 0 0 0 0 0 0 0 0 0 0 0 0 0 0 0 0 0 0.25 0"/>
<feBlend mode="normal" in2="BackgroundImageFix" result="effect1_dropShadow_100_888"/>
<feBlend mode="normal" in="SourceGraphic" in2="effect1_dropShadow_100_888" result="shape"/>
</filter>
<clipPath id="clip0_100_888">
<rect width="88" height="90" fill="white"/>
</clipPath>
</defs>
</svg>
